<svg width="449" height="360" viewBox="0 0 449 360" fill="none" xmlns="http://www.w3.org/2000/svg">
<path d="M224.95 266.396C224.95 266.396 78.6747 282.769 45.4622 289.821C12.2497 296.873 16.283 304.664 78.3986 307.232C215.529 313.036 212.733 314.989 336.63 290.859C406.683 276.712 423.296 272.113 390.693 267.992C358.09 263.872 224.95 266.396 224.95 266.396Z" fill="#2A197E"/>
<path d="M129.563 258.749C39.3282 249.869 18.6816 191.323 34.3229 144.979C54.6364 84.8804 127.939 39.5383 245.249 50.7398C395.293 65.0753 437.11 197.591 420.917 251.538L129.563 258.749Z" fill="#00D3B8"/>
<path d="M165.852 239.365H113.777V258.735H165.852V239.365Z" fill="white"/>
<path d="M136.441 221.765L118.043 221.402C106.885 221.199 97.5558 236.492 97.193 255.572C96.8303 274.652 105.565 290.293 116.723 290.511L135.121 290.859C146.279 291.077 155.608 275.783 155.971 256.703C156.334 237.623 147.57 221.968 136.441 221.765Z" fill="#2A197E"/>
<path d="M401.604 253.831C401.053 261.622 400.53 263.987 397.498 264.292C394.465 264.597 318.363 272.781 298.644 275.03C278.926 277.279 221.555 276.48 183.859 276.103C151.038 275.755 89.4587 270.633 71.5249 268.848C70.0227 268.691 68.5721 268.214 67.2705 267.448C65.9688 266.682 64.8468 265.645 63.9803 264.408C60.7321 257.888 58.1601 251.052 56.3047 244.008C53.5043 233.851 54.4477 219.211 56.9579 211.593C58.5394 206.733 59.9758 202.568 61.5864 198.535C63.6781 193.3 66.1361 188.218 68.9425 183.329C70.0678 181.381 71.4273 179.578 72.9907 177.96C77.5963 173.181 83.5303 169.896 90.0246 168.529C95.6398 167.687 106.943 166.425 110.57 165.178C114.198 163.93 148.585 146.924 170.582 143.152C195.248 138.958 244.19 136.898 283.641 144.748C315.563 151.031 330.899 170.59 346.264 184.649C361.006 198.143 377.069 207.226 385.789 213.958C394.509 220.691 393.871 229.005 395.742 233.633C397.614 238.262 401.764 245.908 401.604 253.831Z" fill="white"/>
<path d="M299.95 217.064C296.851 214.443 293.172 212.599 289.218 211.683C285.264 210.767 281.149 210.806 277.213 211.797C272.466 212.846 268.194 215.426 265.054 219.139C263.514 221.002 262.426 223.196 261.875 225.549C261.324 227.903 261.324 230.351 261.877 232.705C261.907 232.889 261.999 233.058 262.138 233.184C262.266 233.255 262.411 233.292 262.558 233.292C262.706 233.292 262.85 233.255 262.979 233.184C269.175 230.543 294.131 260.201 294.726 264.583C300.748 308.953 305.319 248.985 305.798 248.927C307.031 248.796 301.038 231.907 301.27 230.673C302.025 226.553 300.052 224.391 300.516 220.227" fill="#2A197E"/>
<path d="M281.218 224.522L261.761 224.144C249.979 223.926 240.142 239.206 239.779 258.286C239.416 277.366 248.658 293.021 260.44 293.253L279.883 293.631C291.665 293.848 301.517 278.57 301.88 259.475C302.242 240.381 293 224.754 281.218 224.522Z" fill="#2A197E"/>
<path d="M295.623 260.09C295.898 245.757 289.977 234.019 282.398 233.874C274.819 233.728 268.451 245.23 268.176 259.563C267.901 273.897 273.822 285.633 281.401 285.779C288.981 285.925 295.348 274.424 295.623 260.09Z" fill="white"/>
<path d="M284.657 259.907C284.741 255.517 282.926 251.921 280.602 251.877C278.279 251.832 276.327 255.355 276.243 259.746C276.159 264.136 277.974 267.732 280.297 267.776C282.621 267.821 284.572 264.298 284.657 259.907Z" fill="#2A197E"/>
<path d="M378.751 230.253L365.126 229.992C356.87 229.832 349.964 240.729 349.718 254.325C349.471 267.92 355.928 279.078 364.227 279.237L377.851 279.498C386.107 279.658 393.014 268.761 393.275 255.166C393.536 241.57 386.978 230.412 378.751 230.253Z" fill="#2A197E"/>
<path d="M390.434 255.527C390.639 244.823 385.941 236.051 379.94 235.936C373.939 235.821 368.908 244.405 368.702 255.109C368.497 265.813 373.195 274.584 379.196 274.699C385.197 274.814 390.228 266.231 390.434 255.527Z" fill="white"/>
<path d="M391.811 262.899C396.758 255.949 392.58 241.976 392.101 239.683C391.469 235.674 389.871 231.88 387.444 228.627C384.948 225.726 381.16 223.984 377.765 225.218C376.307 225.819 374.985 226.707 373.877 227.829C372.679 228.768 371.839 230.09 371.497 231.573C371.412 232.06 371.462 232.562 371.642 233.024C372.194 234.228 373.63 234.199 374.791 234.126C377.616 233.917 380.445 234.481 382.974 235.76C385.502 237.038 387.635 238.981 389.141 241.381" fill="#2A197E"/>
<path d="M312.442 254.672L304.303 213.059L278.258 209.344C278.258 209.344 245.075 216.469 237.181 224.246C229.288 232.023 222.048 275.189 226.241 275.943C230.434 276.698 255.043 277.177 256.711 276.031C258.38 274.884 258.467 272.011 259.947 258.808C262.326 237.391 270.408 219.994 282.379 220.212C294.349 220.429 300.327 238.131 301.488 259.634C302.112 271.024 300.269 274.782 300.733 274.782C301.198 274.782 350.908 268.311 350.908 268.311" fill="white"/>
<path d="M398.659 248.491L386.718 222.446L378.578 217.397C378.578 217.397 349.98 217.658 345.307 223.012C340.635 228.366 301.894 271.155 300.777 274.782C322.541 274.782 347.469 270.792 358.018 268.906C359.64 268.618 361.117 267.785 362.203 266.545C363.29 265.306 363.922 263.733 363.996 262.086C364.097 259.997 364.242 257.299 364.576 253.903C366.027 239.191 373.963 224.739 381.03 224.884C388.096 225.029 393.842 237.144 394.669 251.959C395.027 255.705 395.614 259.427 396.425 263.102L401.14 258.474" fill="white"/>
<path d="M351.778 200.9L278.04 182.908L272.831 181.631C269.715 180.981 266.938 179.23 265.008 176.698C263.079 174.166 262.126 171.024 262.326 167.847C262.488 164.546 263.905 161.432 266.288 159.141C270.385 154.936 275.331 151.651 280.797 149.507C282.081 149.027 283.423 148.72 284.787 148.593C288.778 148.201 293.493 149.391 300.574 152.8C303.548 154.251 306.943 156.094 310.832 158.387C322.599 165.308 343.507 185.2 354.448 195.937C354.929 196.373 355.25 196.957 355.36 197.596C355.471 198.235 355.364 198.893 355.056 199.464C354.749 200.035 354.259 200.487 353.665 200.747C353.071 201.007 352.406 201.061 351.778 200.9Z" fill="#2A197E"/>
<path d="M351.778 200.9L278.04 182.908L272.831 181.631C269.715 180.981 266.938 179.23 265.008 176.698C263.079 174.166 262.126 171.024 262.326 167.847C262.488 164.546 263.905 161.432 266.288 159.141C270.385 154.936 275.331 151.651 280.797 149.507C282.081 149.027 283.423 148.72 284.787 148.593C288.778 148.201 293.493 149.391 300.574 152.8C303.548 154.251 306.943 156.094 310.832 158.387C322.599 165.308 343.507 185.2 354.448 195.937C354.929 196.373 355.25 196.957 355.36 197.596C355.471 198.235 355.364 198.893 355.056 199.464C354.749 200.035 354.259 200.487 353.665 200.747C353.071 201.007 352.406 201.061 351.778 200.9Z" fill="#2A197E"/>
<path d="M299.573 152.336C302.75 153.787 306.421 155.803 310.716 158.343C322.469 165.264 343.391 185.157 354.332 195.908C354.836 196.34 355.177 196.931 355.299 197.583C355.42 198.236 355.314 198.91 354.998 199.494C354.683 200.078 354.177 200.536 353.564 200.792C352.952 201.048 352.27 201.085 351.633 200.899L276.56 182.574C282.644 179.417 289.672 178.592 296.322 180.252L307.64 183.154L299.21 154.382" fill="#3D6AFA"/>
<path d="M349.327 200.189L351.851 190.424C352.059 189.613 352.545 188.9 353.223 188.41C353.902 187.92 354.73 187.682 355.566 187.739C359.361 187.937 363.113 188.639 366.723 189.829C372.31 191.961 370.379 199.056 367.55 201.117C364.721 203.177 360.296 202.568 353.68 201.393" fill="#2A197E"/>
<path d="M259.018 275.102L241.389 273.201C239.88 273.011 238.429 272.502 237.133 271.706C235.837 270.91 234.725 269.846 233.873 268.586C228.33 260.78 211.485 255.688 202.765 254.904C112.384 246.706 57.6685 248.81 57.6685 248.81C57.6685 248.81 60.2514 261.332 64.8219 266.076C67.7239 269.152 75.8054 269.878 95.6981 271.648C115.591 273.419 182.335 276.915 210.832 277.452C239.329 277.989 262.196 277.002 262.196 277.002" fill="#2A197E"/>
<path d="M302.025 151.509L317.391 194.196L307.858 191.744L294.262 149.811" fill="white"/>
<path d="M111.484 164.829C111.484 164.829 141.012 148.027 162.834 144.82C184.656 141.613 216.389 142.731 232.379 143.253C236.558 143.376 240.727 143.715 244.871 144.269C245.903 144.41 246.871 144.852 247.652 145.541C248.433 146.23 248.993 147.135 249.261 148.141C249.529 149.148 249.494 150.211 249.16 151.198C248.825 152.184 248.207 153.05 247.382 153.685C239.72 159.576 233.075 164.089 228.519 165.148C221.018 166.933 163.066 161.26 110.991 165.148" fill="#3D6AFA"/>
<path d="M220.06 201.248L178.476 200.58C178.946 196.169 180.625 191.972 183.329 188.454C186.032 184.936 189.655 182.233 193.797 180.644C205.147 175.925 217.689 174.875 229.665 177.641C238.139 179.411 244.973 183.227 242.579 190.699C241.621 193.703 238.704 195.995 235.541 197.679C230.761 200.145 225.438 201.372 220.06 201.248Z" fill="#2A197E"/>
<path d="M80.5499 199.826C80.5499 199.826 61.5713 200.914 60.9329 200.899L61.0923 200.581C61.2374 199.928 61.4265 199.246 61.5861 198.564C63.6779 193.328 66.1358 188.247 68.9422 183.358C70.0675 181.41 71.427 179.606 72.9904 177.989C74.3289 178.54 75.5367 179.367 76.5364 180.414C77.536 181.461 78.3053 182.706 78.7943 184.068C81.6817 191.192 80.5499 199.826 80.5499 199.826Z" fill="#2A197E"/>
<path d="M108.582 191.497L144.885 192.136L143.318 211.042L106.827 210.099L108.582 191.497Z" fill="#2A197E"/>
<path d="M298.977 150.638L295.901 147.301L298.847 144.588L302.605 146.59L298.977 150.638Z" fill="#B63848"/>
<path d="M297.251 137.754L295.727 139.205L296.293 144.08L297.367 148.129L304.883 146.097C306.885 145.255 308.38 140.931 308.626 140.177C308.873 139.422 309.903 137.115 309.903 137.115L306.725 136.027L305.449 133.256L301.517 134.417" fill="#B63848"/>
<path d="M303.824 133.778L305.71 137.435L312.182 128.598C312.381 128.346 312.475 128.027 312.442 127.707C312.41 127.387 312.254 127.093 312.007 126.886C311.748 126.701 311.428 126.622 311.113 126.665C310.797 126.708 310.51 126.87 310.31 127.118L303.824 133.778Z" fill="#B63848"/>
<path d="M301.531 136.665L309.251 137.957L316.912 135.055C317.242 134.916 317.509 134.66 317.662 134.336C317.815 134.012 317.842 133.643 317.739 133.299C317.617 132.963 317.374 132.682 317.058 132.514C316.742 132.345 316.375 132.3 316.027 132.385L301.531 136.665Z" fill="#B63848"/>
<path d="M297.222 138.929L301.894 134.489C302.062 134.356 302.273 134.288 302.488 134.299C302.702 134.309 302.905 134.397 303.059 134.546C303.214 134.695 303.308 134.895 303.326 135.109C303.344 135.323 303.284 135.536 303.156 135.709L300.53 138.508C300.268 138.789 300.09 139.138 300.016 139.515C299.941 139.892 299.974 140.282 300.109 140.642C300.43 141.38 300.529 142.197 300.392 142.991C300.255 143.785 299.89 144.522 299.341 145.111C299.254 145.206 299.136 145.268 299.008 145.284C298.88 145.3 298.751 145.269 298.644 145.198C297.614 144.487 297.28 142.049 297.28 141.904C297.28 141.759 297.745 141.367 297.788 141.019C297.565 140.332 297.376 139.635 297.222 138.929Z" fill="#B63848"/>
<path d="M310.451 139.617C310.633 138.763 310.178 137.941 309.433 137.782C308.689 137.623 307.937 138.187 307.754 139.041C307.572 139.895 308.028 140.717 308.772 140.876C309.517 141.035 310.268 140.471 310.451 139.617Z" fill="#B63848"/>
<path d="M300.27 141.788C300.096 142.644 307.147 143.413 307.887 143.573C308.27 143.597 308.648 143.483 308.954 143.251C309.259 143.019 309.471 142.684 309.55 142.309C309.629 141.934 309.57 141.543 309.385 141.208C309.2 140.872 308.9 140.615 308.54 140.482C307.8 140.323 300.4 140.946 300.27 141.788Z" fill="#B63848"/>
<path d="M381.744 255.387C381.813 251.814 380.245 248.886 378.242 248.848C376.239 248.809 374.56 251.675 374.491 255.248C374.422 258.821 375.99 261.749 377.993 261.788C379.996 261.826 381.676 258.961 381.744 255.387Z" fill="#2A197E"/>
<path d="M301.749 151.219L300.588 152.757L278.04 182.908L272.831 181.631C269.715 180.981 266.938 179.23 265.008 176.698C263.079 174.166 262.126 171.024 262.326 167.847L284.802 148.549L295.742 139.161C295.742 139.263 295.771 143.471 301.749 151.219Z" fill="#FF0ABD"/>
<path d="M296.322 180.252C289.672 178.592 282.644 179.418 276.56 182.574L307.306 190.076L304.811 182.386L296.322 180.252Z" fill="#3D6AFA"/>
</svg>
